<svg xmlns="http://www.w3.org/2000/svg" version="1.1" x="0px" y="0px" viewBox="0 0 80 80" xml:space="preserve"><path fill="#ddd" d="M55.4 33.8c0-5.9-2.1-11-6.3-15.2s-9.3-6.3-15.2-6.3 -11 2.1-15.2 6.3 -6.3 9.3-6.3 15.2 2.1 11 6.3 15.2 9.3 6.3 15.2 6.3 11-2.1 15.2-6.3S55.4 39.8 55.4 33.8zM80 73.8c0 1.7-0.6 3.1-1.8 4.3C77 79.4 75.5 80 73.8 80c-1.7 0-3.2-0.6-4.3-1.8L53 61.7c-5.7 4-12.1 6-19.2 6 -4.6 0-9-0.9-13.1-2.7s-7.8-4.2-10.8-7.2S4.4 51.2 2.7 47 0 38.4 0 33.8s0.9-9 2.7-13.1 4.2-7.8 7.2-10.8 6.6-5.4 10.8-7.2S29.3 0 33.8 0s9 0.9 13.1 2.7 7.8 4.2 10.8 7.2 5.4 6.6 7.2 10.8 2.7 8.6 2.7 13.1c0 7.1-2 13.4-6 19.2l16.5 16.5C79.4 70.7 80 72.1 80 73.8z"/></svg>