<svg xmlns="http://www.w3.org/2000/svg" version="1.1" x="0px" y="0px" viewBox="0 0 80 80" xml:space="preserve"><path fill="#aaa" d="M80 63.3C80 72.6 72.6 80 63.3 80s-16.7-7.4-16.7-16.7c0-0.6 0.1-1.2 0.1-1.8L28 52.2c-3 2.8-7 4.5-11.4 4.5C7.4 56.7 0 49.2 0 40s7.4-16.7 16.7-16.7c4.4 0 8.4 1.7 11.4 4.5l18.7-9.4c0-0.6-0.1-1.2-0.1-1.8C46.7 7.4 54.1 0 63.3 0S80 7.4 80 16.7s-7.4 16.7-16.7 16.7c-4.4 0-8.4-1.7-11.4-4.5l-18.7 9.4c0 0.6 0.1 1.2 0.1 1.8s-0.1 1.2-0.1 1.8L52 51.1c3-2.8 7-4.5 11.4-4.5C72.6 46.7 80 54.1 80 63.3z"/></svg>